<svg width="23" height="23" viewBox="0 0 23 23" fill="none" xmlns="http://www.w3.org/2000/svg">
<path d="M16.8852 10.3021C16.4731 10.3021 16.1473 9.96664 16.1473 9.56414C16.1473 9.20955 15.7927 8.47164 15.1985 7.82955C14.6139 7.20664 13.9718 6.84247 13.4352 6.84247C13.0231 6.84247 12.6973 6.50705 12.6973 6.10455C12.6973 5.70205 13.0327 5.36664 13.4352 5.36664C14.3935 5.36664 15.3998 5.88414 16.2814 6.81372C17.1056 7.6858 17.6327 8.76872 17.6327 9.55455C17.6327 9.96664 17.2973 10.3021 16.8852 10.3021Z" fill="#4156D9"/>
<path d="M20.3449 10.3021C19.9329 10.3021 19.607 9.96669 19.607 9.56419C19.607 6.1621 16.8374 3.4021 13.4449 3.4021C13.0329 3.4021 12.707 3.06669 12.707 2.66419C12.707 2.26169 13.0329 1.91669 13.4354 1.91669C17.652 1.91669 21.0829 5.34752 21.0829 9.56419C21.0829 9.96669 20.7474 10.3021 20.3449 10.3021Z" fill="#4156D9"/>
<path opacity="0.4" d="M11.2981 13.6179L8.16435 16.7517C7.81935 16.445 7.48393 16.1288 7.1581 15.8029C6.17102 14.8063 5.27977 13.7617 4.48435 12.6692C3.69852 11.5767 3.06602 10.4842 2.60602 9.40127C2.14602 8.30877 1.91602 7.26419 1.91602 6.26752C1.91602 5.61585 2.03102 4.99294 2.26102 4.41794C2.49102 3.83335 2.85518 3.29669 3.3631 2.81752C3.97643 2.21377 4.64727 1.91669 5.35643 1.91669C5.62477 1.91669 5.8931 1.97419 6.13268 2.08919C6.38185 2.20419 6.60227 2.37669 6.77477 2.62585L8.9981 5.7596C9.1706 5.99919 9.29518 6.2196 9.38143 6.43044C9.46768 6.63169 9.5156 6.83294 9.5156 7.01502C9.5156 7.24502 9.44852 7.47502 9.31435 7.69544C9.18977 7.91585 9.00768 8.14585 8.77768 8.37585L8.04935 9.13294C7.94393 9.23835 7.89602 9.36294 7.89602 9.51627C7.89602 9.59294 7.9056 9.66002 7.92477 9.73669C7.95352 9.81335 7.98227 9.87085 8.00143 9.92835C8.17393 10.2446 8.47102 10.6567 8.89268 11.155C9.32393 11.6534 9.78393 12.1613 10.2823 12.6692C10.6273 13.0046 10.9627 13.3304 11.2981 13.6179Z" fill="#4156D9"/>
<path d="M21.0538 17.5663C21.0538 17.8346 21.0059 18.1125 20.9101 18.3809C20.8813 18.4575 20.8526 18.5342 20.8142 18.6109C20.6513 18.9559 20.4405 19.2817 20.1626 19.5884C19.693 20.1059 19.1755 20.4796 18.5909 20.7192C18.5813 20.7192 18.5717 20.7288 18.5621 20.7288C17.9967 20.9588 17.3834 21.0834 16.7221 21.0834C15.7446 21.0834 14.7001 20.8534 13.598 20.3838C12.4959 19.9142 11.3938 19.2817 10.3013 18.4863C9.92755 18.2084 9.5538 17.9304 9.19922 17.6334L12.333 14.4996C12.6013 14.7009 12.8409 14.8542 13.0421 14.9596C13.0901 14.9788 13.1476 15.0075 13.2146 15.0363C13.2913 15.065 13.368 15.0746 13.4542 15.0746C13.6171 15.0746 13.7417 15.0171 13.8471 14.9117L14.5755 14.1929C14.8151 13.9534 15.0451 13.7713 15.2655 13.6563C15.4859 13.5221 15.7063 13.455 15.9459 13.455C16.128 13.455 16.3196 13.4934 16.5305 13.5796C16.7413 13.6659 16.9617 13.7904 17.2013 13.9534L20.3734 16.2054C20.6226 16.3779 20.7951 16.5792 20.9005 16.8188C20.9963 17.0584 21.0538 17.2979 21.0538 17.5663Z" fill="#4156D9"/>
</svg>
