<svg width="23" height="23" viewBox="0 0 23 23" fill="none" xmlns="http://www.w3.org/2000/svg">
<path opacity="0.4" d="M19.761 8.0979C18.7548 3.6704 14.8927 1.67706 11.5002 1.67706C11.5002 1.67706 11.5002 1.67706 11.4906 1.67706C8.10771 1.67706 4.23605 3.66081 3.2298 8.08831C2.10855 13.0333 5.13688 17.2212 7.87771 19.8566C8.89355 20.8341 10.1969 21.3229 11.5002 21.3229C12.8035 21.3229 14.1069 20.8341 15.1131 19.8566C17.854 17.2212 20.8823 13.0429 19.761 8.0979Z" fill="#4156D9"/>
<path d="M11.4992 12.8992C13.1664 12.8992 14.518 11.5477 14.518 9.88045C14.518 8.21324 13.1664 6.86169 11.4992 6.86169C9.83201 6.86169 8.48047 8.21324 8.48047 9.88045C8.48047 11.5477 9.83201 12.8992 11.4992 12.8992Z" fill="#4156D9"/>
</svg>
