<svg width="23" height="23" viewBox="0 0 23 23" fill="none" xmlns="http://www.w3.org/2000/svg">
<path opacity="0.4" d="M16.291 19.6459H6.70768C3.83268 19.6459 1.91602 18.2084 1.91602 14.8542V8.14585C1.91602 4.79169 3.83268 3.35419 6.70768 3.35419H16.291C19.166 3.35419 21.0827 4.79169 21.0827 8.14585V14.8542C21.0827 18.2084 19.166 19.6459 16.291 19.6459Z" fill="#4156D9"/>
<path d="M11.4993 12.3337C10.6943 12.3337 9.87976 12.0846 9.25684 11.5766L6.25726 9.18081C5.95059 8.93164 5.89309 8.48122 6.14226 8.17455C6.39143 7.86789 6.84185 7.81039 7.14851 8.05956L10.1481 10.4554C10.8764 11.04 12.1127 11.04 12.841 10.4554L15.8406 8.05956C16.1473 7.81039 16.6073 7.8583 16.8468 8.17455C17.096 8.48122 17.0481 8.94122 16.7318 9.18081L13.7323 11.5766C13.1189 12.0846 12.3043 12.3337 11.4993 12.3337Z" fill="#4156D9"/>
</svg>
