<svg width="58" height="58" viewBox="0 0 58 58" fill="none" xmlns="http://www.w3.org/2000/svg">
<circle cx="29" cy="29" r="28.25" fill="#4B47FF" fill-opacity="0.15" stroke="#4156D9" stroke-width="1.5"/>
<g clip-path="url(#clip0_345_1421)">
<path opacity="0.4" d="M29.0007 43.1667C36.8247 43.1667 43.1673 36.824 43.1673 29C43.1673 21.176 36.8247 14.8333 29.0007 14.8333C21.1766 14.8333 14.834 21.176 14.834 29C14.834 36.824 21.1766 43.1667 29.0007 43.1667Z" fill="#4156D9"/>
<path d="M34.0001 31.8475C33.7309 31.8475 33.4617 31.7483 33.2492 31.5358L28.9992 27.2858L24.7492 31.5358C24.3384 31.9467 23.6584 31.9467 23.2476 31.5358C22.8367 31.125 22.8367 30.445 23.2476 30.0342L28.2484 25.0333C28.6592 24.6225 29.3392 24.6225 29.7501 25.0333L34.7509 30.0342C35.1617 30.445 35.1617 31.125 34.7509 31.5358C34.5384 31.7483 34.2692 31.8475 34.0001 31.8475Z" fill="#4156D9"/>
</g>
<defs>
<clipPath id="clip0_345_1421">
<rect width="34" height="34" fill="white" transform="translate(12 12)"/>
</clipPath>
</defs>
</svg>
