<svg width="49" height="49" viewBox="0 0 65 65" fill="none" xmlns="http://www.w3.org/2000/svg">
<g filter="url(#filter0_b_118_2398)">
<rect width="65" height="65" rx="10" fill="white"/>
<rect x="0.75" y="0.75" width="63.5" height="63.5" rx="9.25" stroke="#DCDCDC" stroke-width="1.5"/>
</g>
<path d="M25.5577 17.9166H22.7868C19.5931 17.9166 17.916 19.5937 17.916 22.7729V25.5437C17.916 28.7229 19.5931 30.4 22.7723 30.4H25.5431C28.7223 30.4 30.3993 28.7229 30.3993 25.5437V22.7729C30.4139 19.5937 28.7368 17.9166 25.5577 17.9166Z" fill="#262626"/>
<path opacity="0.5" d="M42.2267 17.9166H39.4559C36.2767 17.9166 34.5996 19.5937 34.5996 22.7729V25.5437C34.5996 28.7229 36.2767 30.4 39.4559 30.4H42.2267C45.4059 30.4 47.0829 28.7229 47.0829 25.5437V22.7729C47.0829 19.5937 45.4059 17.9166 42.2267 17.9166Z" fill="#262626"/>
<path d="M42.2267 34.5854H39.4559C36.2767 34.5854 34.5996 36.2625 34.5996 39.4417V42.2125C34.5996 45.3917 36.2767 47.0688 39.4559 47.0688H42.2267C45.4059 47.0688 47.0829 45.3917 47.0829 42.2125V39.4417C47.0829 36.2625 45.4059 34.5854 42.2267 34.5854Z" fill="#262626"/>
<path opacity="0.5" d="M25.5577 34.5854H22.7868C19.5931 34.5854 17.916 36.2625 17.916 39.4417V42.2125C17.916 45.4063 19.5931 47.0834 22.7723 47.0834H25.5431C28.7223 47.0834 30.3993 45.4063 30.3993 42.2271V39.4563C30.4139 36.2625 28.7368 34.5854 25.5577 34.5854Z" fill="#262626"/>
<defs>
<filter id="filter0_b_118_2398" x="-40" y="-40" width="145" height="145" filterUnits="userSpaceOnUse" color-interpolation-filters="sRGB">
<feFlood flood-opacity="0" result="BackgroundImageFix"/>
<feGaussianBlur in="BackgroundImageFix" stdDeviation="20"/>
<feComposite in2="SourceAlpha" operator="in" result="effect1_backgroundBlur_118_2398"/>
<feBlend mode="normal" in="SourceGraphic" in2="effect1_backgroundBlur_118_2398" result="shape"/>
</filter>
</defs>
</svg>
