<svg width="184" height="148" viewBox="0 0 184 148" fill="none" xmlns="http://www.w3.org/2000/svg">
<rect width="184" height="148" rx="14" fill="#4156D9"/>
<path d="M56.568 69.96H55.288V82.504H56.568V85H50.296V77.48H45.272V85H39V82.504H40.248V69.96H39V67.464H45.272V74.984H50.296V67.464H56.568V69.96ZM59.0625 67.464H75.3505V85H70.3585V77.48H65.3345V85H60.3105V69.96H59.0625V67.464ZM70.3585 74.984V69.96H65.3345V74.984H70.3585ZM86.643 67.464H92.915V85H77.875V77.48H82.899V82.504H87.891V69.96H86.643V67.464ZM105.454 69.96H102.958V82.504H105.454V85H95.4375V82.504H97.9335V69.96H95.4375V67.464H105.454V69.96ZM116.737 67.464H123.009V85H107.969V77.48H112.993V82.504H117.985V69.96H116.737V67.464ZM125.531 67.464H141.819V85H136.827V77.48H131.803V85H126.779V69.96H125.531V67.464ZM136.827 74.984V69.96H131.803V74.984H136.827Z" fill="white"/>
<path d="M144.5 33L145.801 43.1989L156 44.5L145.801 45.8011L144.5 56L143.199 45.8011L133 44.5L143.199 43.1989L144.5 33Z" fill="white"/>
<path d="M154 54L154.792 60.208L161 61L154.792 61.792L154 68L153.208 61.792L147 61L153.208 60.208L154 54Z" fill="white"/>
<path d="M137.5 54L138.009 57.9909L142 58.5L138.009 59.0091L137.5 63L136.991 59.0091L133 58.5L136.991 57.9909L137.5 54Z" fill="white"/>
</svg>
